<?xml version="1.0" encoding="UTF-8" standalone="no"?>
<svg
   xmlns:svg="http://www.w3.org/2000/svg"
   xmlns="http://www.w3.org/2000/svg"
   xmlns:sodipodi="http://sodipodi.sourceforge.net/DTD/sodipodi-0.dtd"
   xmlns:inkscape="http://www.inkscape.org/namespaces/inkscape"
   version="1.1"
   id="Layer_1"
   x="0px"
   y="0px"
   viewBox="0 0 2956.79 1659.6899"
   enable-background="new 0 0 2956.79 1659.6899"
   xml:space="preserve"
   sodipodi:docname="icon.svg"
   inkscape:version="1.1-dev (48d18c81, 2020-07-08)"><defs
   id="defs848" /><sodipodi:namedview
   pagecolor="#ffffff"
   bordercolor="#666666"
   borderopacity="1"
   objecttolerance="10"
   gridtolerance="10"
   guidetolerance="10"
   inkscape:pageopacity="0"
   inkscape:pageshadow="2"
   inkscape:window-width="1920"
   inkscape:window-height="1035"
   id="namedview846"
   showgrid="false"
   inkscape:zoom="0.22659709"
   inkscape:cx="1429.8507"
   inkscape:cy="831.873"
   inkscape:window-x="0"
   inkscape:window-y="74"
   inkscape:window-maximized="0"
   inkscape:current-layer="g843" />
<g
   id="g843"
   style="fill:#aaaaaa;fill-opacity:1">
	
	
	
	
	
	<path
   inkscape:export-ydpi="2.4400001"
   inkscape:export-xdpi="2.4400001"
   d="m 1312.4321,383.58512 c 65.73,-120.91036 131.6289,-241.86384 203.999,-358.993105 70.395,113.262085 134.2339,230.475655 197.9883,347.562135 38.791,68.0843 69.4699,140.37016 98.3013,213.16015 62.6198,161.29946 110.488,332.2226 106.8316,506.6764 -1.9751,91.3663 -20.6353,183.4478 -62.5775,265.1471 -67.3693,134.6971 -198.2826,229.3834 -340.9218,271.3262 -69.4705,-22.0641 -136.5457,-53.4586 -194.6268,-97.8805 -50.979,-38.371 -94.8971,-86.2392 -127.9305,-140.8741 -42.5727,-69.4287 -66.5693,-149.1952 -75.8574,-229.8028 -11.0953,-95.4856 -2.4375,-192.23089 15.8433,-286.24535 18.7022,-94.18149 47.3644,-186.1369 81.8682,-275.61267 28.7886,-73.04262 58.6701,-145.91746 97.0823,-214.46346 z"
   id="path833"
   style="fill:#ffffff;fill-opacity:1;stroke-width:0.999965" />
	
	
	<path
   inkscape:export-ydpi="2.4400001"
   inkscape:export-xdpi="2.4400001"
   d="m 351.06774,372.78489 c 81.02787,25.59371 160.29063,56.82036 237.83031,91.61881 82.66675,37.36141 163.48426,79.64073 238.12418,131.41703 52.99606,37.02609 103.30201,79.51538 141.63027,132.00704 19.08006,27.3595 36.5638,57.74446 41.607,91.07166 -16.85251,108.34548 -21.72826,218.96047 -10.2129,328.14607 8.9103,83.0026 27.9061,165.8375 64.7211,241.192 27.4017,56.8205 67.5383,106.8324 115.9528,147.2204 -161.089,41.5229 -341.38422,20.4677 -481.2917,-72.4544 -66.61264,-43.96 -122.76045,-102.6294 -167.22498,-168.6534 C 443.06499,1160.9142 389.35449,1004.3646 377.20876,844.36812 366.82817,732.36596 378.80583,620.15411 382.25206,508.19506 381.66345,461.83947 380.3606,411.239 351.06774,372.78489 Z"
   id="path839"
   style="fill:#ffffff;fill-opacity:1;stroke-width:0.999965" />
	<path
   inkscape:export-ydpi="2.4400001"
   inkscape:export-xdpi="2.4400001"
   d="m 2621.8631,387.32609 c 14.6679,-5.08514 29.3357,-10.46469 44.4645,-14.20558 -28.8297,36.81559 -30.3431,85.86159 -31.3512,130.57775 3.0672,113.51462 15.6339,227.19777 5.1272,340.75424 -12.1041,159.4079 -65.5623,315.4116 -154.0287,448.5949 -41.6487,61.9475 -93.3836,117.549 -154.6166,160.6259 -141.6304,100.8658 -329.1549,124.778 -495.5813,81.5323 52.4917,-41.6063 93.4678,-96.536 121.3736,-157.1799 33.6639,-72.1177 51.1892,-150.7514 59.846,-229.5098 11.7674,-109.7729 6.8088,-220.93445 -10.1277,-329.86832 4.1178,-28.99835 18.8281,-55.34935 34.041,-79.89331 44.213,-65.68768 107.547,-115.6159 172.8571,-158.94484 126.6684,-81.99461 266.1136,-142.21933 407.9961,-192.48334 z"
   id="path841"
   style="fill:#ffffff;fill-opacity:1;stroke-width:0.999965" />
</g>
</svg>
